<mxfile host="app.diagrams.net" modified="2023-12-08T05:55:07.121Z" agent="Mozilla/5.0 (Windows NT 10.0; Win64; x64) AppleWebKit/537.36 (KHTML, like Gecko) Chrome/115.0.0.0 Safari/537.36" etag="Ew6-3Tjk9-PtN4vbMSey" version="22.1.7" type="device">
  <diagram id="C5RBs43oDa-KdzZeNtuy" name="Page-1">
    <mxGraphModel dx="3341" dy="1383" grid="1" gridSize="10" guides="1" tooltips="1" connect="1" arrows="1" fold="1" page="1" pageScale="1" pageWidth="827" pageHeight="1169" math="0" shadow="0">
      <root>
        <mxCell id="WIyWlLk6GJQsqaUBKTNV-0" />
        <mxCell id="WIyWlLk6GJQsqaUBKTNV-1" parent="WIyWlLk6GJQsqaUBKTNV-0" />
        <mxCell id="bwwct-PBgF6Mu_VAMtFp-4" value="" style="edgeStyle=orthogonalEdgeStyle;rounded=0;orthogonalLoop=1;jettySize=auto;html=1;" edge="1" parent="WIyWlLk6GJQsqaUBKTNV-1" source="bwwct-PBgF6Mu_VAMtFp-2">
          <mxGeometry relative="1" as="geometry">
            <mxPoint x="3" y="212" as="targetPoint" />
          </mxGeometry>
        </mxCell>
        <mxCell id="bwwct-PBgF6Mu_VAMtFp-2" value="" style="strokeWidth=2;html=1;shape=mxgraph.flowchart.start_2;whiteSpace=wrap;" vertex="1" parent="WIyWlLk6GJQsqaUBKTNV-1">
          <mxGeometry x="-47" y="12" width="100" height="100" as="geometry" />
        </mxCell>
        <mxCell id="bwwct-PBgF6Mu_VAMtFp-9" value="" style="edgeStyle=orthogonalEdgeStyle;rounded=0;orthogonalLoop=1;jettySize=auto;html=1;" edge="1" parent="WIyWlLk6GJQsqaUBKTNV-1" source="bwwct-PBgF6Mu_VAMtFp-5" target="bwwct-PBgF6Mu_VAMtFp-8">
          <mxGeometry relative="1" as="geometry" />
        </mxCell>
        <mxCell id="bwwct-PBgF6Mu_VAMtFp-5" value="" style="strokeWidth=2;html=1;shape=mxgraph.flowchart.terminator;whiteSpace=wrap;" vertex="1" parent="WIyWlLk6GJQsqaUBKTNV-1">
          <mxGeometry x="-47" y="212" width="100" height="60" as="geometry" />
        </mxCell>
        <mxCell id="bwwct-PBgF6Mu_VAMtFp-11" value="" style="edgeStyle=orthogonalEdgeStyle;rounded=0;orthogonalLoop=1;jettySize=auto;html=1;" edge="1" parent="WIyWlLk6GJQsqaUBKTNV-1" source="bwwct-PBgF6Mu_VAMtFp-8" target="bwwct-PBgF6Mu_VAMtFp-10">
          <mxGeometry relative="1" as="geometry" />
        </mxCell>
        <mxCell id="bwwct-PBgF6Mu_VAMtFp-8" value="" style="shape=parallelogram;perimeter=parallelogramPerimeter;whiteSpace=wrap;html=1;fixedSize=1;strokeWidth=2;" vertex="1" parent="WIyWlLk6GJQsqaUBKTNV-1">
          <mxGeometry x="-57" y="352" width="120" height="60" as="geometry" />
        </mxCell>
        <mxCell id="bwwct-PBgF6Mu_VAMtFp-13" value="" style="edgeStyle=orthogonalEdgeStyle;rounded=0;orthogonalLoop=1;jettySize=auto;html=1;" edge="1" parent="WIyWlLk6GJQsqaUBKTNV-1" source="bwwct-PBgF6Mu_VAMtFp-10" target="bwwct-PBgF6Mu_VAMtFp-12">
          <mxGeometry relative="1" as="geometry" />
        </mxCell>
        <mxCell id="bwwct-PBgF6Mu_VAMtFp-21" value="" style="edgeStyle=orthogonalEdgeStyle;rounded=0;orthogonalLoop=1;jettySize=auto;html=1;exitX=0.5;exitY=1;exitDx=0;exitDy=0;entryX=0.5;entryY=0;entryDx=0;entryDy=0;" edge="1" parent="WIyWlLk6GJQsqaUBKTNV-1" source="bwwct-PBgF6Mu_VAMtFp-10" target="bwwct-PBgF6Mu_VAMtFp-20">
          <mxGeometry relative="1" as="geometry" />
        </mxCell>
        <mxCell id="bwwct-PBgF6Mu_VAMtFp-10" value="" style="rhombus;whiteSpace=wrap;html=1;strokeWidth=2;" vertex="1" parent="WIyWlLk6GJQsqaUBKTNV-1">
          <mxGeometry x="-37" y="482" width="80" height="80" as="geometry" />
        </mxCell>
        <mxCell id="bwwct-PBgF6Mu_VAMtFp-17" style="edgeStyle=orthogonalEdgeStyle;rounded=0;orthogonalLoop=1;jettySize=auto;html=1;" edge="1" parent="WIyWlLk6GJQsqaUBKTNV-1" source="bwwct-PBgF6Mu_VAMtFp-12">
          <mxGeometry relative="1" as="geometry">
            <mxPoint x="3" y="312" as="targetPoint" />
            <Array as="points">
              <mxPoint x="163" y="312" />
            </Array>
          </mxGeometry>
        </mxCell>
        <mxCell id="bwwct-PBgF6Mu_VAMtFp-12" value="" style="shape=parallelogram;perimeter=parallelogramPerimeter;whiteSpace=wrap;html=1;fixedSize=1;strokeWidth=2;" vertex="1" parent="WIyWlLk6GJQsqaUBKTNV-1">
          <mxGeometry x="103" y="492" width="120" height="60" as="geometry" />
        </mxCell>
        <mxCell id="bwwct-PBgF6Mu_VAMtFp-124" style="edgeStyle=orthogonalEdgeStyle;rounded=0;orthogonalLoop=1;jettySize=auto;html=1;exitX=0.5;exitY=1;exitDx=0;exitDy=0;entryX=0.5;entryY=0;entryDx=0;entryDy=0;" edge="1" parent="WIyWlLk6GJQsqaUBKTNV-1" source="bwwct-PBgF6Mu_VAMtFp-20" target="bwwct-PBgF6Mu_VAMtFp-22">
          <mxGeometry relative="1" as="geometry" />
        </mxCell>
        <mxCell id="bwwct-PBgF6Mu_VAMtFp-20" value="" style="whiteSpace=wrap;html=1;strokeWidth=2;" vertex="1" parent="WIyWlLk6GJQsqaUBKTNV-1">
          <mxGeometry x="-57" y="612" width="120" height="60" as="geometry" />
        </mxCell>
        <mxCell id="bwwct-PBgF6Mu_VAMtFp-61" style="edgeStyle=orthogonalEdgeStyle;rounded=0;orthogonalLoop=1;jettySize=auto;html=1;exitX=0.5;exitY=1;exitDx=0;exitDy=0;entryX=0.5;entryY=0;entryDx=0;entryDy=0;" edge="1" parent="WIyWlLk6GJQsqaUBKTNV-1" source="bwwct-PBgF6Mu_VAMtFp-22" target="bwwct-PBgF6Mu_VAMtFp-24">
          <mxGeometry relative="1" as="geometry" />
        </mxCell>
        <mxCell id="bwwct-PBgF6Mu_VAMtFp-62" style="edgeStyle=orthogonalEdgeStyle;rounded=0;orthogonalLoop=1;jettySize=auto;html=1;exitX=0;exitY=0.5;exitDx=0;exitDy=0;entryX=1;entryY=0.5;entryDx=0;entryDy=0;" edge="1" parent="WIyWlLk6GJQsqaUBKTNV-1" source="bwwct-PBgF6Mu_VAMtFp-22" target="bwwct-PBgF6Mu_VAMtFp-53">
          <mxGeometry relative="1" as="geometry" />
        </mxCell>
        <mxCell id="bwwct-PBgF6Mu_VAMtFp-22" value="" style="rhombus;whiteSpace=wrap;html=1;strokeWidth=2;" vertex="1" parent="WIyWlLk6GJQsqaUBKTNV-1">
          <mxGeometry x="-37" y="712" width="80" height="80" as="geometry" />
        </mxCell>
        <mxCell id="bwwct-PBgF6Mu_VAMtFp-29" value="" style="edgeStyle=orthogonalEdgeStyle;rounded=0;orthogonalLoop=1;jettySize=auto;html=1;" edge="1" parent="WIyWlLk6GJQsqaUBKTNV-1" source="bwwct-PBgF6Mu_VAMtFp-24" target="bwwct-PBgF6Mu_VAMtFp-28">
          <mxGeometry relative="1" as="geometry" />
        </mxCell>
        <mxCell id="bwwct-PBgF6Mu_VAMtFp-24" value="" style="whiteSpace=wrap;html=1;strokeWidth=2;" vertex="1" parent="WIyWlLk6GJQsqaUBKTNV-1">
          <mxGeometry x="-57" y="812" width="120" height="60" as="geometry" />
        </mxCell>
        <mxCell id="bwwct-PBgF6Mu_VAMtFp-135" style="edgeStyle=orthogonalEdgeStyle;rounded=0;orthogonalLoop=1;jettySize=auto;html=1;exitX=0.5;exitY=1;exitDx=0;exitDy=0;entryX=0.5;entryY=0;entryDx=0;entryDy=0;" edge="1" parent="WIyWlLk6GJQsqaUBKTNV-1" source="bwwct-PBgF6Mu_VAMtFp-28" target="bwwct-PBgF6Mu_VAMtFp-84">
          <mxGeometry relative="1" as="geometry" />
        </mxCell>
        <mxCell id="bwwct-PBgF6Mu_VAMtFp-28" value="" style="whiteSpace=wrap;html=1;strokeWidth=2;" vertex="1" parent="WIyWlLk6GJQsqaUBKTNV-1">
          <mxGeometry x="-57" y="892" width="120" height="60" as="geometry" />
        </mxCell>
        <mxCell id="bwwct-PBgF6Mu_VAMtFp-63" style="edgeStyle=orthogonalEdgeStyle;rounded=0;orthogonalLoop=1;jettySize=auto;html=1;exitX=0.5;exitY=1;exitDx=0;exitDy=0;entryX=0.5;entryY=0;entryDx=0;entryDy=0;" edge="1" parent="WIyWlLk6GJQsqaUBKTNV-1" source="bwwct-PBgF6Mu_VAMtFp-53" target="bwwct-PBgF6Mu_VAMtFp-56">
          <mxGeometry relative="1" as="geometry" />
        </mxCell>
        <mxCell id="bwwct-PBgF6Mu_VAMtFp-80" style="edgeStyle=orthogonalEdgeStyle;rounded=0;orthogonalLoop=1;jettySize=auto;html=1;exitX=0;exitY=0.5;exitDx=0;exitDy=0;entryX=1;entryY=0.5;entryDx=0;entryDy=0;" edge="1" parent="WIyWlLk6GJQsqaUBKTNV-1" source="bwwct-PBgF6Mu_VAMtFp-53" target="bwwct-PBgF6Mu_VAMtFp-66">
          <mxGeometry relative="1" as="geometry" />
        </mxCell>
        <mxCell id="bwwct-PBgF6Mu_VAMtFp-53" value="" style="rhombus;whiteSpace=wrap;html=1;strokeWidth=2;" vertex="1" parent="WIyWlLk6GJQsqaUBKTNV-1">
          <mxGeometry x="-187" y="712" width="80" height="80" as="geometry" />
        </mxCell>
        <mxCell id="bwwct-PBgF6Mu_VAMtFp-64" style="edgeStyle=orthogonalEdgeStyle;rounded=0;orthogonalLoop=1;jettySize=auto;html=1;exitX=0.5;exitY=1;exitDx=0;exitDy=0;entryX=0.5;entryY=0;entryDx=0;entryDy=0;" edge="1" parent="WIyWlLk6GJQsqaUBKTNV-1" source="bwwct-PBgF6Mu_VAMtFp-56" target="bwwct-PBgF6Mu_VAMtFp-59">
          <mxGeometry relative="1" as="geometry" />
        </mxCell>
        <mxCell id="bwwct-PBgF6Mu_VAMtFp-56" value="" style="whiteSpace=wrap;html=1;strokeWidth=2;" vertex="1" parent="WIyWlLk6GJQsqaUBKTNV-1">
          <mxGeometry x="-207" y="822" width="120" height="60" as="geometry" />
        </mxCell>
        <mxCell id="bwwct-PBgF6Mu_VAMtFp-87" style="edgeStyle=orthogonalEdgeStyle;rounded=0;orthogonalLoop=1;jettySize=auto;html=1;exitX=0.5;exitY=1;exitDx=0;exitDy=0;" edge="1" parent="WIyWlLk6GJQsqaUBKTNV-1" source="bwwct-PBgF6Mu_VAMtFp-59">
          <mxGeometry relative="1" as="geometry">
            <mxPoint x="3" y="992" as="targetPoint" />
            <Array as="points">
              <mxPoint x="-147" y="992" />
            </Array>
          </mxGeometry>
        </mxCell>
        <mxCell id="bwwct-PBgF6Mu_VAMtFp-59" value="" style="whiteSpace=wrap;html=1;strokeWidth=2;" vertex="1" parent="WIyWlLk6GJQsqaUBKTNV-1">
          <mxGeometry x="-207" y="902" width="120" height="60" as="geometry" />
        </mxCell>
        <mxCell id="bwwct-PBgF6Mu_VAMtFp-65" style="edgeStyle=orthogonalEdgeStyle;rounded=0;orthogonalLoop=1;jettySize=auto;html=1;exitX=0.5;exitY=1;exitDx=0;exitDy=0;entryX=0.5;entryY=0;entryDx=0;entryDy=0;" edge="1" parent="WIyWlLk6GJQsqaUBKTNV-1" source="bwwct-PBgF6Mu_VAMtFp-66" target="bwwct-PBgF6Mu_VAMtFp-68">
          <mxGeometry relative="1" as="geometry" />
        </mxCell>
        <mxCell id="bwwct-PBgF6Mu_VAMtFp-81" style="edgeStyle=orthogonalEdgeStyle;rounded=0;orthogonalLoop=1;jettySize=auto;html=1;exitX=0;exitY=0.5;exitDx=0;exitDy=0;entryX=1;entryY=0.5;entryDx=0;entryDy=0;" edge="1" parent="WIyWlLk6GJQsqaUBKTNV-1" source="bwwct-PBgF6Mu_VAMtFp-66" target="bwwct-PBgF6Mu_VAMtFp-71">
          <mxGeometry relative="1" as="geometry" />
        </mxCell>
        <mxCell id="bwwct-PBgF6Mu_VAMtFp-66" value="" style="rhombus;whiteSpace=wrap;html=1;strokeWidth=2;" vertex="1" parent="WIyWlLk6GJQsqaUBKTNV-1">
          <mxGeometry x="-337" y="712" width="80" height="80" as="geometry" />
        </mxCell>
        <mxCell id="bwwct-PBgF6Mu_VAMtFp-67" style="edgeStyle=orthogonalEdgeStyle;rounded=0;orthogonalLoop=1;jettySize=auto;html=1;exitX=0.5;exitY=1;exitDx=0;exitDy=0;entryX=0.5;entryY=0;entryDx=0;entryDy=0;" edge="1" parent="WIyWlLk6GJQsqaUBKTNV-1" source="bwwct-PBgF6Mu_VAMtFp-68" target="bwwct-PBgF6Mu_VAMtFp-69">
          <mxGeometry relative="1" as="geometry" />
        </mxCell>
        <mxCell id="bwwct-PBgF6Mu_VAMtFp-68" value="" style="whiteSpace=wrap;html=1;strokeWidth=2;" vertex="1" parent="WIyWlLk6GJQsqaUBKTNV-1">
          <mxGeometry x="-357" y="822" width="120" height="60" as="geometry" />
        </mxCell>
        <mxCell id="bwwct-PBgF6Mu_VAMtFp-88" style="edgeStyle=orthogonalEdgeStyle;rounded=0;orthogonalLoop=1;jettySize=auto;html=1;exitX=0.5;exitY=1;exitDx=0;exitDy=0;" edge="1" parent="WIyWlLk6GJQsqaUBKTNV-1" source="bwwct-PBgF6Mu_VAMtFp-69">
          <mxGeometry relative="1" as="geometry">
            <mxPoint x="-147" y="992" as="targetPoint" />
            <Array as="points">
              <mxPoint x="-297" y="992" />
            </Array>
          </mxGeometry>
        </mxCell>
        <mxCell id="bwwct-PBgF6Mu_VAMtFp-69" value="" style="whiteSpace=wrap;html=1;strokeWidth=2;" vertex="1" parent="WIyWlLk6GJQsqaUBKTNV-1">
          <mxGeometry x="-357" y="902" width="120" height="60" as="geometry" />
        </mxCell>
        <mxCell id="bwwct-PBgF6Mu_VAMtFp-70" style="edgeStyle=orthogonalEdgeStyle;rounded=0;orthogonalLoop=1;jettySize=auto;html=1;exitX=0.5;exitY=1;exitDx=0;exitDy=0;entryX=0.5;entryY=0;entryDx=0;entryDy=0;" edge="1" parent="WIyWlLk6GJQsqaUBKTNV-1" source="bwwct-PBgF6Mu_VAMtFp-71" target="bwwct-PBgF6Mu_VAMtFp-73">
          <mxGeometry relative="1" as="geometry" />
        </mxCell>
        <mxCell id="bwwct-PBgF6Mu_VAMtFp-82" style="edgeStyle=orthogonalEdgeStyle;rounded=0;orthogonalLoop=1;jettySize=auto;html=1;exitX=0;exitY=0.5;exitDx=0;exitDy=0;entryX=1;entryY=0.5;entryDx=0;entryDy=0;" edge="1" parent="WIyWlLk6GJQsqaUBKTNV-1" source="bwwct-PBgF6Mu_VAMtFp-71" target="bwwct-PBgF6Mu_VAMtFp-76">
          <mxGeometry relative="1" as="geometry" />
        </mxCell>
        <mxCell id="bwwct-PBgF6Mu_VAMtFp-71" value="" style="rhombus;whiteSpace=wrap;html=1;strokeWidth=2;" vertex="1" parent="WIyWlLk6GJQsqaUBKTNV-1">
          <mxGeometry x="-477" y="712" width="80" height="80" as="geometry" />
        </mxCell>
        <mxCell id="bwwct-PBgF6Mu_VAMtFp-72" style="edgeStyle=orthogonalEdgeStyle;rounded=0;orthogonalLoop=1;jettySize=auto;html=1;exitX=0.5;exitY=1;exitDx=0;exitDy=0;entryX=0.5;entryY=0;entryDx=0;entryDy=0;" edge="1" parent="WIyWlLk6GJQsqaUBKTNV-1" source="bwwct-PBgF6Mu_VAMtFp-73" target="bwwct-PBgF6Mu_VAMtFp-74">
          <mxGeometry relative="1" as="geometry" />
        </mxCell>
        <mxCell id="bwwct-PBgF6Mu_VAMtFp-73" value="" style="whiteSpace=wrap;html=1;strokeWidth=2;" vertex="1" parent="WIyWlLk6GJQsqaUBKTNV-1">
          <mxGeometry x="-497" y="822" width="120" height="60" as="geometry" />
        </mxCell>
        <mxCell id="bwwct-PBgF6Mu_VAMtFp-89" style="edgeStyle=orthogonalEdgeStyle;rounded=0;orthogonalLoop=1;jettySize=auto;html=1;exitX=0.5;exitY=1;exitDx=0;exitDy=0;" edge="1" parent="WIyWlLk6GJQsqaUBKTNV-1" source="bwwct-PBgF6Mu_VAMtFp-74">
          <mxGeometry relative="1" as="geometry">
            <mxPoint x="-297" y="992" as="targetPoint" />
            <Array as="points">
              <mxPoint x="-437" y="992" />
            </Array>
          </mxGeometry>
        </mxCell>
        <mxCell id="bwwct-PBgF6Mu_VAMtFp-74" value="" style="whiteSpace=wrap;html=1;strokeWidth=2;" vertex="1" parent="WIyWlLk6GJQsqaUBKTNV-1">
          <mxGeometry x="-497" y="902" width="120" height="60" as="geometry" />
        </mxCell>
        <mxCell id="bwwct-PBgF6Mu_VAMtFp-93" value="" style="edgeStyle=orthogonalEdgeStyle;rounded=0;orthogonalLoop=1;jettySize=auto;html=1;" edge="1" parent="WIyWlLk6GJQsqaUBKTNV-1" source="bwwct-PBgF6Mu_VAMtFp-76" target="bwwct-PBgF6Mu_VAMtFp-92">
          <mxGeometry relative="1" as="geometry" />
        </mxCell>
        <mxCell id="bwwct-PBgF6Mu_VAMtFp-76" value="" style="rhombus;whiteSpace=wrap;html=1;strokeWidth=2;" vertex="1" parent="WIyWlLk6GJQsqaUBKTNV-1">
          <mxGeometry x="-607" y="712" width="80" height="80" as="geometry" />
        </mxCell>
        <mxCell id="bwwct-PBgF6Mu_VAMtFp-136" style="edgeStyle=orthogonalEdgeStyle;rounded=0;orthogonalLoop=1;jettySize=auto;html=1;exitX=0.5;exitY=1;exitDx=0;exitDy=0;entryX=0.5;entryY=0;entryDx=0;entryDy=0;" edge="1" parent="WIyWlLk6GJQsqaUBKTNV-1" source="bwwct-PBgF6Mu_VAMtFp-84" target="bwwct-PBgF6Mu_VAMtFp-98">
          <mxGeometry relative="1" as="geometry" />
        </mxCell>
        <mxCell id="bwwct-PBgF6Mu_VAMtFp-84" value="" style="whiteSpace=wrap;html=1;strokeWidth=2;" vertex="1" parent="WIyWlLk6GJQsqaUBKTNV-1">
          <mxGeometry x="-57" y="1022" width="120" height="60" as="geometry" />
        </mxCell>
        <mxCell id="bwwct-PBgF6Mu_VAMtFp-95" value="" style="edgeStyle=orthogonalEdgeStyle;rounded=0;orthogonalLoop=1;jettySize=auto;html=1;" edge="1" parent="WIyWlLk6GJQsqaUBKTNV-1" source="bwwct-PBgF6Mu_VAMtFp-92" target="bwwct-PBgF6Mu_VAMtFp-94">
          <mxGeometry relative="1" as="geometry" />
        </mxCell>
        <mxCell id="bwwct-PBgF6Mu_VAMtFp-92" value="" style="shape=parallelogram;perimeter=parallelogramPerimeter;whiteSpace=wrap;html=1;fixedSize=1;strokeWidth=2;" vertex="1" parent="WIyWlLk6GJQsqaUBKTNV-1">
          <mxGeometry x="-627" y="812" width="120" height="60" as="geometry" />
        </mxCell>
        <mxCell id="bwwct-PBgF6Mu_VAMtFp-94" value="" style="whiteSpace=wrap;html=1;strokeWidth=2;" vertex="1" parent="WIyWlLk6GJQsqaUBKTNV-1">
          <mxGeometry x="-627" y="892" width="120" height="60" as="geometry" />
        </mxCell>
        <mxCell id="bwwct-PBgF6Mu_VAMtFp-96" value="" style="strokeWidth=2;html=1;shape=mxgraph.flowchart.terminator;whiteSpace=wrap;" vertex="1" parent="WIyWlLk6GJQsqaUBKTNV-1">
          <mxGeometry x="-617" y="972" width="100" height="60" as="geometry" />
        </mxCell>
        <mxCell id="bwwct-PBgF6Mu_VAMtFp-138" style="edgeStyle=orthogonalEdgeStyle;rounded=0;orthogonalLoop=1;jettySize=auto;html=1;exitX=1;exitY=0.5;exitDx=0;exitDy=0;entryX=0;entryY=0.5;entryDx=0;entryDy=0;" edge="1" parent="WIyWlLk6GJQsqaUBKTNV-1" source="bwwct-PBgF6Mu_VAMtFp-98" target="bwwct-PBgF6Mu_VAMtFp-100">
          <mxGeometry relative="1" as="geometry" />
        </mxCell>
        <mxCell id="bwwct-PBgF6Mu_VAMtFp-140" style="edgeStyle=orthogonalEdgeStyle;rounded=0;orthogonalLoop=1;jettySize=auto;html=1;exitX=0.5;exitY=1;exitDx=0;exitDy=0;entryX=0.5;entryY=0;entryDx=0;entryDy=0;" edge="1" parent="WIyWlLk6GJQsqaUBKTNV-1" source="bwwct-PBgF6Mu_VAMtFp-98" target="bwwct-PBgF6Mu_VAMtFp-103">
          <mxGeometry relative="1" as="geometry" />
        </mxCell>
        <mxCell id="bwwct-PBgF6Mu_VAMtFp-98" value="" style="rhombus;whiteSpace=wrap;html=1;strokeWidth=2;" vertex="1" parent="WIyWlLk6GJQsqaUBKTNV-1">
          <mxGeometry x="-37" y="1112" width="80" height="80" as="geometry" />
        </mxCell>
        <mxCell id="bwwct-PBgF6Mu_VAMtFp-139" style="edgeStyle=orthogonalEdgeStyle;rounded=0;orthogonalLoop=1;jettySize=auto;html=1;exitX=1;exitY=0.5;exitDx=0;exitDy=0;" edge="1" parent="WIyWlLk6GJQsqaUBKTNV-1" source="bwwct-PBgF6Mu_VAMtFp-100">
          <mxGeometry relative="1" as="geometry">
            <mxPoint x="3" y="1002" as="targetPoint" />
            <Array as="points">
              <mxPoint x="203" y="1152" />
              <mxPoint x="203" y="1002" />
            </Array>
          </mxGeometry>
        </mxCell>
        <mxCell id="bwwct-PBgF6Mu_VAMtFp-100" value="" style="shape=parallelogram;perimeter=parallelogramPerimeter;whiteSpace=wrap;html=1;fixedSize=1;strokeWidth=2;" vertex="1" parent="WIyWlLk6GJQsqaUBKTNV-1">
          <mxGeometry x="63" y="1122" width="120" height="60" as="geometry" />
        </mxCell>
        <mxCell id="bwwct-PBgF6Mu_VAMtFp-106" value="" style="edgeStyle=orthogonalEdgeStyle;rounded=0;orthogonalLoop=1;jettySize=auto;html=1;entryX=0.5;entryY=0;entryDx=0;entryDy=0;exitX=0.5;exitY=1;exitDx=0;exitDy=0;" edge="1" parent="WIyWlLk6GJQsqaUBKTNV-1" source="bwwct-PBgF6Mu_VAMtFp-103" target="bwwct-PBgF6Mu_VAMtFp-105">
          <mxGeometry relative="1" as="geometry">
            <mxPoint x="193" y="1462" as="targetPoint" />
          </mxGeometry>
        </mxCell>
        <mxCell id="bwwct-PBgF6Mu_VAMtFp-103" value="" style="shape=hexagon;perimeter=hexagonPerimeter2;whiteSpace=wrap;html=1;fixedSize=1;strokeWidth=2;" vertex="1" parent="WIyWlLk6GJQsqaUBKTNV-1">
          <mxGeometry x="-57" y="1212" width="120" height="80" as="geometry" />
        </mxCell>
        <mxCell id="bwwct-PBgF6Mu_VAMtFp-126" value="" style="edgeStyle=orthogonalEdgeStyle;rounded=0;orthogonalLoop=1;jettySize=auto;html=1;" edge="1" parent="WIyWlLk6GJQsqaUBKTNV-1" source="bwwct-PBgF6Mu_VAMtFp-105" target="bwwct-PBgF6Mu_VAMtFp-125">
          <mxGeometry relative="1" as="geometry" />
        </mxCell>
        <mxCell id="bwwct-PBgF6Mu_VAMtFp-153" style="edgeStyle=orthogonalEdgeStyle;rounded=0;orthogonalLoop=1;jettySize=auto;html=1;exitX=1;exitY=0.5;exitDx=0;exitDy=0;entryX=0;entryY=0.5;entryDx=0;entryDy=0;" edge="1" parent="WIyWlLk6GJQsqaUBKTNV-1" source="bwwct-PBgF6Mu_VAMtFp-105" target="bwwct-PBgF6Mu_VAMtFp-111">
          <mxGeometry relative="1" as="geometry" />
        </mxCell>
        <mxCell id="bwwct-PBgF6Mu_VAMtFp-105" value="" style="rhombus;whiteSpace=wrap;html=1;strokeWidth=2;" vertex="1" parent="WIyWlLk6GJQsqaUBKTNV-1">
          <mxGeometry x="-37" y="1462" width="80" height="80" as="geometry" />
        </mxCell>
        <mxCell id="bwwct-PBgF6Mu_VAMtFp-154" style="edgeStyle=orthogonalEdgeStyle;rounded=0;orthogonalLoop=1;jettySize=auto;html=1;exitX=1;exitY=0.5;exitDx=0;exitDy=0;entryX=0;entryY=0.5;entryDx=0;entryDy=0;" edge="1" parent="WIyWlLk6GJQsqaUBKTNV-1" source="bwwct-PBgF6Mu_VAMtFp-111" target="bwwct-PBgF6Mu_VAMtFp-113">
          <mxGeometry relative="1" as="geometry" />
        </mxCell>
        <mxCell id="bwwct-PBgF6Mu_VAMtFp-111" value="" style="whiteSpace=wrap;html=1;strokeWidth=2;" vertex="1" parent="WIyWlLk6GJQsqaUBKTNV-1">
          <mxGeometry x="130" y="1472" width="120" height="60" as="geometry" />
        </mxCell>
        <mxCell id="bwwct-PBgF6Mu_VAMtFp-155" style="edgeStyle=orthogonalEdgeStyle;rounded=0;orthogonalLoop=1;jettySize=auto;html=1;exitX=0.5;exitY=0;exitDx=0;exitDy=0;entryX=0.5;entryY=1;entryDx=0;entryDy=0;" edge="1" parent="WIyWlLk6GJQsqaUBKTNV-1" source="bwwct-PBgF6Mu_VAMtFp-113" target="bwwct-PBgF6Mu_VAMtFp-115">
          <mxGeometry relative="1" as="geometry" />
        </mxCell>
        <mxCell id="bwwct-PBgF6Mu_VAMtFp-157" style="edgeStyle=orthogonalEdgeStyle;rounded=0;orthogonalLoop=1;jettySize=auto;html=1;exitX=1;exitY=0.5;exitDx=0;exitDy=0;entryX=0;entryY=0.5;entryDx=0;entryDy=0;" edge="1" parent="WIyWlLk6GJQsqaUBKTNV-1" source="bwwct-PBgF6Mu_VAMtFp-113" target="bwwct-PBgF6Mu_VAMtFp-118">
          <mxGeometry relative="1" as="geometry" />
        </mxCell>
        <mxCell id="bwwct-PBgF6Mu_VAMtFp-113" value="" style="rhombus;whiteSpace=wrap;html=1;strokeWidth=2;" vertex="1" parent="WIyWlLk6GJQsqaUBKTNV-1">
          <mxGeometry x="360" y="1462" width="80" height="80" as="geometry" />
        </mxCell>
        <mxCell id="bwwct-PBgF6Mu_VAMtFp-156" style="edgeStyle=orthogonalEdgeStyle;rounded=0;orthogonalLoop=1;jettySize=auto;html=1;exitX=0.5;exitY=0;exitDx=0;exitDy=0;" edge="1" parent="WIyWlLk6GJQsqaUBKTNV-1" source="bwwct-PBgF6Mu_VAMtFp-115">
          <mxGeometry relative="1" as="geometry">
            <mxPoint x="110" y="1502" as="targetPoint" />
            <Array as="points">
              <mxPoint x="400" y="1372" />
              <mxPoint x="111" y="1372" />
            </Array>
          </mxGeometry>
        </mxCell>
        <mxCell id="bwwct-PBgF6Mu_VAMtFp-115" value="" style="shape=parallelogram;perimeter=parallelogramPerimeter;whiteSpace=wrap;html=1;fixedSize=1;strokeWidth=2;" vertex="1" parent="WIyWlLk6GJQsqaUBKTNV-1">
          <mxGeometry x="340" y="1382" width="120" height="60" as="geometry" />
        </mxCell>
        <mxCell id="bwwct-PBgF6Mu_VAMtFp-158" style="edgeStyle=orthogonalEdgeStyle;rounded=0;orthogonalLoop=1;jettySize=auto;html=1;exitX=1;exitY=0.5;exitDx=0;exitDy=0;entryX=0.5;entryY=1;entryDx=0;entryDy=0;" edge="1" parent="WIyWlLk6GJQsqaUBKTNV-1" source="bwwct-PBgF6Mu_VAMtFp-118" target="bwwct-PBgF6Mu_VAMtFp-120">
          <mxGeometry relative="1" as="geometry" />
        </mxCell>
        <mxCell id="bwwct-PBgF6Mu_VAMtFp-118" value="" style="whiteSpace=wrap;html=1;strokeWidth=2;" vertex="1" parent="WIyWlLk6GJQsqaUBKTNV-1">
          <mxGeometry x="470" y="1472" width="120" height="60" as="geometry" />
        </mxCell>
        <mxCell id="bwwct-PBgF6Mu_VAMtFp-160" style="edgeStyle=orthogonalEdgeStyle;rounded=0;orthogonalLoop=1;jettySize=auto;html=1;exitX=0.5;exitY=0;exitDx=0;exitDy=0;" edge="1" parent="WIyWlLk6GJQsqaUBKTNV-1">
          <mxGeometry relative="1" as="geometry">
            <mxPoint y="1312" as="targetPoint" />
            <mxPoint x="656" y="1392" as="sourcePoint" />
            <Array as="points">
              <mxPoint x="660" y="1392" />
              <mxPoint x="660" y="1312" />
            </Array>
          </mxGeometry>
        </mxCell>
        <mxCell id="bwwct-PBgF6Mu_VAMtFp-120" value="" style="whiteSpace=wrap;html=1;strokeWidth=2;" vertex="1" parent="WIyWlLk6GJQsqaUBKTNV-1">
          <mxGeometry x="600" y="1392" width="120" height="60" as="geometry" />
        </mxCell>
        <mxCell id="bwwct-PBgF6Mu_VAMtFp-128" value="" style="edgeStyle=orthogonalEdgeStyle;rounded=0;orthogonalLoop=1;jettySize=auto;html=1;" edge="1" parent="WIyWlLk6GJQsqaUBKTNV-1" source="bwwct-PBgF6Mu_VAMtFp-125" target="bwwct-PBgF6Mu_VAMtFp-127">
          <mxGeometry relative="1" as="geometry" />
        </mxCell>
        <mxCell id="bwwct-PBgF6Mu_VAMtFp-125" value="" style="shape=parallelogram;perimeter=parallelogramPerimeter;whiteSpace=wrap;html=1;fixedSize=1;strokeWidth=2;" vertex="1" parent="WIyWlLk6GJQsqaUBKTNV-1">
          <mxGeometry x="-57" y="1572" width="120" height="60" as="geometry" />
        </mxCell>
        <mxCell id="bwwct-PBgF6Mu_VAMtFp-162" style="edgeStyle=orthogonalEdgeStyle;rounded=0;orthogonalLoop=1;jettySize=auto;html=1;exitX=0.5;exitY=1;exitDx=0;exitDy=0;entryX=0.5;entryY=0;entryDx=0;entryDy=0;" edge="1" parent="WIyWlLk6GJQsqaUBKTNV-1" source="bwwct-PBgF6Mu_VAMtFp-127" target="bwwct-PBgF6Mu_VAMtFp-129">
          <mxGeometry relative="1" as="geometry" />
        </mxCell>
        <mxCell id="bwwct-PBgF6Mu_VAMtFp-127" value="" style="shape=parallelogram;perimeter=parallelogramPerimeter;whiteSpace=wrap;html=1;fixedSize=1;strokeWidth=2;" vertex="1" parent="WIyWlLk6GJQsqaUBKTNV-1">
          <mxGeometry x="-57" y="1662" width="120" height="60" as="geometry" />
        </mxCell>
        <mxCell id="bwwct-PBgF6Mu_VAMtFp-129" value="" style="ellipse;whiteSpace=wrap;html=1;strokeWidth=2;" vertex="1" parent="WIyWlLk6GJQsqaUBKTNV-1">
          <mxGeometry x="-37" y="1746" width="80" height="80" as="geometry" />
        </mxCell>
        <mxCell id="bwwct-PBgF6Mu_VAMtFp-141" style="edgeStyle=orthogonalEdgeStyle;rounded=0;orthogonalLoop=1;jettySize=auto;html=1;exitX=0.5;exitY=1;exitDx=0;exitDy=0;entryX=0.5;entryY=0;entryDx=0;entryDy=0;entryPerimeter=0;" edge="1" parent="WIyWlLk6GJQsqaUBKTNV-1" source="bwwct-PBgF6Mu_VAMtFp-94" target="bwwct-PBgF6Mu_VAMtFp-96">
          <mxGeometry relative="1" as="geometry" />
        </mxCell>
      </root>
    </mxGraphModel>
  </diagram>
</mxfile>
